[Header]
FileType HTR
DataType HTRS
FileVersion 1
NumSegments 28
NumFrames 4
DataFrameRate 24
EulerRotationOrder ZYX
CalibrationUnits mm
RotationUnits Degrees
GlobalAxisofGravity Y
BoneLengthAxis Y
ScaleFactor 1.0
[SegmentNames&Hierarchy]
waist	GLOBAL
chest	waist
head	chest
joint2	chest
right_shoulder1	joint2
right_elbow1	right_shoulder1
right_wrist1	right_elbow1
right_hand1	right_wrist1
right_finger3	right_hand1
right_finger4	right_hand1
right_finger5	right_hand1
joint3	chest
right_shoulder2	joint3
right_elbow2	right_shoulder2
right_wrist2	right_elbow2
right_hand2	right_wrist2
right_finger6	right_hand2
right_finger7	right_hand2
right_finger8	right_hand2
Center_pelvis	waist
left_pelvs	Center_pelvis
left_leg	left_pelvs
left_knee	left_leg
left_foot	left_knee
right_pelvis	Center_pelvis
right_leg	right_pelvis
right_knee	right_leg
right_foot	right_knee
[BasePosition]
waist	0	0	0	179.9999991	0	91.33221985	1
chest	0	0	0	-2.307808268e-010	-1.984983424e-008	1.332219854	1
head	0	0	0	180	-1.481061187e-024	90	1
joint2	0	0	0	4.615476202e-010	-1.707085745e-006	90	1
right_shoulder1	0	0	0	1.916575325e-008	-1.983803253e-008	-88.02506599	1
right_elbow1	0	0	0	-180	-1.948815659e-008	-12.92899665	1
right_wrist1	0	0	0	3.256551172e-010	1.942478841e-008	1.920938916	1
right_hand1	0	0	0	136.2194085	85.17676588	-133.4832578	1
right_finger3	0	0	0	154.4596717	79.84057755	147.6247455	1
right_finger4	0	0	0	154.4596717	79.84057755	147.6247455	1
right_finger5	0	0	0	154.4596717	79.84057755	147.6247455	1
joint3	0	0	0	-180	-1.89575832e-022	90	1
right_shoulder2	0	0	0	6.774897105e-015	-7.012540931e-015	-88.02506599	1
right_elbow2	0	0	0	-180	-6.888863384e-015	-12.92899665	1
right_wrist2	0	0	0	-1.240805042e-012	-7.401196581e-011	1.920938916	1
right_hand2	0	0	0	136.2194085	85.17676588	-133.4832578	1
right_finger6	0	0	0	154.4596717	79.84057755	147.6247455	1
right_finger7	0	0	0	154.4596717	79.84057755	147.6247455	1
right_finger8	0	0	0	154.4596717	79.84057755	147.6247455	1
Center_pelvis	0	0	0	-180	-8.537716493e-007	89.87586122	1
left_pelvs	0	0	0	0	0	-1.456358634	1
left_leg	0	0	0	179.9999991	0	88.69804733	1
left_knee	0	0	0	-180	-7.863991589e-009	-2.076172838	1
left_foot	0	0	0	179.9999985	-3.055580289e-010	-90.77422016	1
right_pelvis	0	0	0	0	0	-2.39554958	1
right_leg	0	0	0	0	0	-87.75885638	1
right_knee	0	0	0	179.9999991	3.702652968e-022	-2.076172838	1
right_foot	0	0	0	180	-7.405305937e-025	-90.77422016	1
[waist]
11	0	-3.152148962	0	1.823863387	-13.80161572	1.340750337	1.0
12	0	-3.152148962	0	1.823863387	-13.80161572	1.340750337	1.0
13	0	-3.152148962	0	1.823863387	-13.80161572	1.340750337	1.0
14	0	-3.152148962	0	1.823863387	-13.80161572	1.340750337	1.0
[chest]
11	20.49674797	-0.4902082384	-11.98028469	-6.127370358	28.30837059	-2.782279968	1.0
12	19.32523537	-0.4706298113	-11.37144661	1.662529111	27.51532936	-2.808819056	1.0
13	19.86014557	-0.4795692861	-11.64944077	4.71009779	27.87742996	-2.796701193	1.0
14	20.59092522	-0.4917821884	-12.02922916	8.873620987	28.37212372	-2.780146122	1.0
[head]
11	20.42279434	0.1615138054	1.437237024	-15.30179024	7.211425781	-3.455855846	1.0
12	20.62318993	0.1433748305	1.492195129	-13.72300816	-0.9224232435	-3.777905464	1.0
13	20.62318993	0.1433748305	1.492195129	-14.00953007	-3.846240997	-2.480346203	1.0
14	20.62318993	0.1433748305	1.492195129	-14.39055252	-7.734386444	-0.7548280954	1.0
[joint2]
11	-1.657010078	17.01290512	0.01287616603	-27.38531303	12.6005888	-1.88122499	1.0
12	-1.657010078	17.01290512	0.01287616603	-20.63539886	6.990128994	-2.435485125	1.0
13	-1.657010078	17.01290512	0.01287616603	-13.00402451	0.6470072269	-3.062125206	1.0
14	-1.657010078	17.01290512	0.01287616603	-4.904895306	-6.084909439	-3.727174282	1.0
[right_shoulder1]
11	14.91590023	0.6211000085	0.9477797747	-2.887654543	-27.99899483	-1.316678166	1.0
12	14.91590023	0.6211000085	0.9477797747	-4.345250607	-25.99051857	-1.981295347	1.0
13	14.91590023	0.6211000085	0.9477797747	-4.332580566	-19.66820145	-5.779119968	1.0
14	14.91590023	0.6211000085	0.9477797747	-4.315732479	-11.26066875	-10.82953644	1.0
[right_elbow1]
11	-13.64346027	1.083028078	-0.5017899871	5.320041656	30.43129921	1.101382971	1.0
12	-13.64346027	1.083028078	-0.5017899871	5.530088425	34.67781067	1.541035056	1.0
13	-13.64346027	1.083028078	-0.5017899871	5.404527187	32.13933945	1.278220654	1.0
14	-13.64346027	1.083028078	-0.5017899871	5.237553596	28.76363564	0.9287253618	1.0
[right_wrist1]
11	-10.24221611	3.618601799	0.9359538555	-5.095549107	27.00724411	-19.73564529	1.0
12	-9.822734833	5.442708969	1.098188281	-2.73199749	30.31006432	-12.33606911	1.0
13	-10.0734911	4.352297783	1.001208067	-1.334705472	29.8788681	-8.04127121	1.0
14	-10.40695286	2.902249336	0.8722421527	0.5234386921	29.30545235	-2.329972744	1.0
[right_hand1]
11	-7.870647907	-0.6475095749	0.1588415354	21.7193203	21.61403084	28.98374557	1.0
12	-7.870647907	-0.6475095749	0.1588415354	20.94214058	22.02795601	31.73510742	1.0
13	-7.870647907	-0.6475095749	0.1588415354	17.82007027	23.57829094	28.79919243	1.0
14	-7.870647907	-0.6475095749	0.1588415354	13.66828632	25.63995552	24.8949585	1.0
[right_finger3]
11	10.07661057	3.347557783	-1.489186764	-84.28975677	13.1826582	87.76701355	1.0
12	10.07661057	3.347557783	-1.489186764	-84.28975677	13.1826582	87.76701355	1.0
13	10.07661057	3.347557783	-1.489186764	-84.28975677	13.1826582	87.76701355	1.0
14	10.07661057	3.347557783	-1.489186764	-84.28975677	13.1826582	87.76701355	1.0
[right_finger4]
11	-1.201135993	3.376283169	11.27149582	-190.2575378	16.2514534	124.4265747	1.0
12	-1.201135993	3.376283169	11.27149582	-190.2575378	16.2514534	124.4265747	1.0
13	-1.201135993	3.376283169	11.27149582	-190.2575378	16.2514534	124.4265747	1.0
14	-1.201135993	3.376283169	11.27149582	-190.2575378	16.2514534	124.4265747	1.0
[right_finger5]
11	-6.853637218	4.493112087	-5.936321735	34.39846039	4.028532028	79.4876709	1.0
12	-6.853637218	4.493112087	-5.936321735	34.39846039	4.028532028	79.4876709	1.0
13	-6.853637218	4.493112087	-5.936321735	34.39846039	4.028532028	79.4876709	1.0
14	-6.853637218	4.493112087	-5.936321735	34.39846039	4.028532028	79.4876709	1.0
[joint3]
11	-1.657010078	-17.01289368	0.01287565939	0.984647274	-5.729325294	-0.2504875362	1.0
12	-1.657010078	-17.01289368	0.01287565939	-7.252982616	0.3645436764	-5.782753468	1.0
13	-1.657010078	-17.01289368	0.01287565939	-16.56635094	7.254201412	-12.03746986	1.0
14	-1.657010078	-17.01289368	0.01287565939	-26.45057297	14.56615353	-18.6755619	1.0
[right_shoulder2]
11	-14.91590023	-0.6211000085	-0.9477797747	-3.080995321	6.737019539	-10.23114967	1.0
12	-14.91590023	-0.6211000085	-0.9477797747	-1.850468397	-14.47999668	-6.085818291	1.0
13	-14.91590023	-0.6211000085	-0.9477797747	1.733772039	-17.20092773	-11.16490459	1.0
14	-14.91590023	-0.6211000085	-0.9477797747	6.500160217	-20.81927109	-17.91916847	1.0
[right_elbow2]
11	11.87715054	-0.8307664394	2.121820688	16.30704308	24.62446976	21.72561073	1.0
12	11.62412834	-1.849775791	1.863900661	19.93328476	14.9991436	30.65739822	1.0
13	12.02904892	-1.696025848	1.590767384	17.42647934	17.52299118	24.74199486	1.0
14	12.56752014	-1.49156642	1.227549791	14.09288216	20.87925148	16.87558365	1.0
[right_wrist2]
11	11.37348366	-5.659013271	-0.5602906942	-3.240600348	17.17036629	-15.31064701	1.0
12	11.37348366	-5.659013271	-0.5602906942	-6.896617889	15.20490646	-27.33980942	1.0
13	11.37348366	-5.659013271	-0.5602906942	-7.474337101	16.25953674	-28.75444031	1.0
14	11.37348366	-5.659013271	-0.5602906942	-8.242598534	17.66200066	-30.63564301	1.0
[right_hand2]
11	8.313048363	0.02588133886	-0.2132965624	15.36325932	23.98776054	26.66718483	1.0
12	8.313048363	0.02588133886	-0.2132965624	20.40652657	21.07462311	31.49942207	1.0
13	8.313048363	0.02588133886	-0.2132965624	20.97857666	21.01827621	29.90203857	1.0
14	8.313048363	0.02588133886	-0.2132965624	21.73929977	20.94334412	27.77780724	1.0
[right_finger6]
11	-10.07661057	-3.347557783	1.489186764	-83.6856308	28.25859642	89.45962524	1.0
12	-10.07661057	-3.347557783	1.489186764	-83.6856308	28.25859642	89.45962524	1.0
13	-10.07661057	-3.347557783	1.489186764	-83.6856308	28.25859642	89.45962524	1.0
14	-10.07661057	-3.347557783	1.489186764	-83.6856308	28.25859642	89.45962524	1.0
[right_finger7]
11	1.201135993	-3.376283169	-11.27149582	-196.815567	9.285179138	95.4122467	1.0
12	1.201135993	-3.376283169	-11.27149582	-196.815567	9.285179138	95.4122467	1.0
13	1.201135993	-3.376283169	-11.27149582	-196.815567	9.285179138	95.4122467	1.0
14	1.201135993	-3.376283169	-11.27149582	-196.815567	9.285179138	95.4122467	1.0
[right_finger8]
11	6.853637218	-4.493112087	5.936321735	33.30503464	-9.988982201	100.1356735	1.0
12	6.853637218	-4.493112087	5.936321735	33.30503464	-9.988982201	100.1356735	1.0
13	6.853637218	-4.493112087	5.936321735	33.30503464	-9.988982201	100.1356735	1.0
14	6.853637218	-4.493112087	5.936321735	33.30503464	-9.988982201	100.1356735	1.0
[Center_pelvis]
11	-5.616972446	-0.3766000271	2.04698658	0	0	0	1.0
12	-5.616972446	-0.3766000271	2.04698658	0	0	0	1.0
13	-5.616972446	-0.3766000271	2.04698658	0	0	0	1.0
14	-5.616972446	-0.3766000271	2.04698658	0	0	0	1.0
[left_pelvs]
11	11.0851059	0.8037672043	0.1090869978	21.19737053	-3.280435562	10.12239265	1.0
12	11.08986378	-0.01586683653	-0.09214995801	17.53731728	-4.936295033	15.23185349	1.0
13	11.09250927	-0.4714289904	-0.2039997876	8.742050171	-3.946458578	12.17753029	1.0
14	11.09602451	-1.077243805	-0.3527396917	-2.954055786	-2.630156517	8.115836143	1.0
[left_leg]
11	8.450808053e-008	-5.682914734	0.3641465604	5.132216454	19.19594193	-0.2489007115	1.0
12	8.450808053e-008	-5.682914734	0.3641465604	7.722795486	9.263975143	-0.3745378554	1.0
13	8.450808053e-008	-5.682914734	0.3641465604	6.17420435	-0.390516609	-0.2994347513	1.0
14	8.450808053e-008	-5.682914734	0.3641465604	4.114859581	-13.22923565	-0.1995612532	1.0
[left_knee]
11	-10.69747543	0.03457061574	-6.811455844e-009	13.24838734	-47.91248322	-12.22441292	1.0
12	-10.69747543	0.03457061574	-6.811455844e-009	19.93575096	-69.9413147	-18.394907	1.0
13	-10.69747543	0.03457061574	-6.811455844e-009	23.36950302	-64.03536224	-15.86258316	1.0
14	-10.69747543	0.03457061574	-6.811455844e-009	27.93577194	-56.18153381	-12.49505043	1.0
[left_foot]
11	-14.54718971	-0.01193539705	1.933258442e-009	-14.96573734	6.095122337	-2.305856228	1.0
12	-14.54718971	-0.01193539705	1.933258442e-009	-28.35054016	9.1717453	-3.469778776	1.0
13	-14.54718971	-0.01193539705	1.933258442e-009	-24.79401207	13.73548698	-5.106281757	1.0
14	-14.54718971	-0.01193539705	1.933258442e-009	-20.06447601	19.80443382	-7.282534122	1.0
[right_pelvis]
11	-10.58382797	-0.08253454417	0.07898661494	-14.46060848	6.605160276e-017	6.816450119	1.0
12	-10.5868988	0.4465443194	0.2088862956	-8.355993271	9.939233496e-017	10.2571764	1.0
13	-10.58925438	0.8524793386	0.3085516393	0.4491159022	7.946197396e-017	8.200386047	1.0
14	-10.59238815	1.392299056	0.441088438	12.15830994	5.29582204e-017	5.465228558	1.0
[right_leg]
11	0.09169664979	-5.593489647	0.06310817599	0.3222023249	-3.506036043	-6.42585659	1.0
12	0.09169664979	-5.593489647	0.06310817599	0.484839797	15.75280285	-9.669424057	1.0
13	0.09169664979	-5.593489647	0.06310817599	0.3876186907	20.11072731	-7.730490685	1.0
14	0.09169664979	-5.593489647	0.06310817599	0.2583323419	25.90597534	-5.152062416	1.0
[right_knee]
11	10.69750977	-0.03459574655	-4.718447855e-015	12.4316206	-15.56036663	-1.93418014	1.0
12	10.69750977	-0.03459574655	-4.718447855e-015	0	-2.977693081	0	1.0
13	10.69750977	-0.03459574655	-4.718447855e-015	0	-3.237056017	0	1.0
14	10.69750977	-0.03459574655	-4.718447855e-015	0	-3.581961632	0	1.0
[right_foot]
11	14.54718685	0.01191107463	1.774880243e-010	-3.560421705	10.71111774	-3.901569843	1.0
12	14.54718685	0.01191107463	1.774880243e-010	0	0	0	1.0
13	14.54718685	0.01191107463	1.774880243e-010	2.316150904	0	0	1.0
14	14.54718685	0.01191107463	1.774880243e-010	5.396210194	0	0	1.0
[EndOfFile]
